<?xml version="1.0" encoding="UTF-8"?>
<svg version="1.1" xmlns="http://www.w3.org/2000/svg" width="512" height="512">
<path d="M0 0 C168.96 0 337.92 0 512 0 C512 168.96 512 337.92 512 512 C343.04 512 174.08 512 0 512 C0 343.04 0 174.08 0 0 Z " fill="#A94332" transform="translate(0,0)"/>
<path d="M0 0 C3.1875 -0.25 3.1875 -0.25 6 0 C6.82421875 2.09765625 6.82421875 2.09765625 7 5 C5.35189969 7.39417911 3.77843702 9.33399779 1.8125 11.4375 C0.69492724 12.68455068 -0.42224937 13.93195647 -1.5390625 15.1796875 C-2.1155957 15.81358398 -2.69212891 16.44748047 -3.28613281 17.10058594 C-5.93674497 20.03815895 -8.49765563 23.05012723 -11.0625 26.0625 C-12.06362797 27.230618 -13.06492939 28.39858736 -14.06640625 29.56640625 C-17.34126711 33.39409558 -20.59306404 37.24108368 -23.8425293 41.09033203 C-27.82179442 45.79995497 -31.83267613 50.48209048 -35.85351562 55.15625 C-38.93616846 58.74349112 -41.98014286 62.35969948 -45 66 C-43.32044107 69.69989794 -41.08369792 72.26692644 -38.33984375 75.21875 C-36.87470446 77.16657366 -36.51838114 78.64797858 -36 81 C-35.1806044 80.99555878 -34.3612088 80.99111755 -33.51698303 80.98654175 C-25.76438538 80.94633302 -18.01183887 80.91594883 -10.25916386 80.89637566 C-6.27421147 80.88597436 -2.28934584 80.87188259 1.69555664 80.84912109 C5.54701646 80.82726151 9.39839325 80.81540394 13.24991035 80.81024551 C14.71338773 80.80657316 16.17686099 80.79940246 17.64030266 80.78853989 C27.82758064 80.71598636 36.88418246 80.85774395 46 86 C46.061875 85.05125 46.12375 84.1025 46.1875 83.125 C47.69025782 73.16672483 54.11302394 65.89893262 61 59 C61.5775 58.41089844 62.155 57.82179687 62.75 57.21484375 C72.83177587 47.73894384 85.98044394 45.52827024 99.29296875 45.75390625 C112.82449731 46.65220583 124.69187626 52.62210536 133.87890625 62.5 C140.79299612 70.64920353 145.08858666 79.67911269 145.0703125 90.48828125 C145.28779832 103.12561712 147.45047805 110.87802846 156.34667969 119.77832031 C159.98123701 123.26364236 163.73928323 126.60894409 167.53852844 129.91311646 C172.66765974 134.43382955 176.81182643 139.61034839 181 145 C182.43182215 146.71309497 183.8686814 148.42200356 185.3125 150.125 C217.59335321 189.70413306 217.59335321 189.70413306 216.8125 201.9375 C216 204 216 204 215 205 C212.875 205.5 212.875 205.5 210 205 C205.34622643 201.36562445 201.65468885 196.49168571 197.81640625 192.03515625 C195.3902239 189.3167885 192.80794344 186.78008332 190.1875 184.25 C188.29033258 182.2986278 186.5253352 180.30222592 184.75390625 178.23828125 C181.04031506 173.96750319 177.06754965 170.05289458 172.9375 166.1875 C172.19653076 165.49317871 171.45556152 164.79885742 170.69213867 164.08349609 C164.0945408 157.97023586 157.23550009 152.33689508 150 147 C149.38962891 146.54866699 148.77925781 146.09733398 148.15039062 145.63232422 C146.29395722 144.26693188 144.43076564 142.91165022 142.5625 141.5625 C142.00731689 141.16111816 141.45213379 140.75973633 140.88012695 140.34619141 C139.27195843 139.20422517 137.63596691 138.10177364 136 137 C135.4544043 136.61239502 134.90880859 136.22479004 134.34667969 135.82543945 C129.55812591 132.69007686 125.73479603 132.5474655 120.125 133.0625 C118.92919312 133.15712524 118.92919312 133.15712524 117.70922852 133.25366211 C107.29035062 134.1932702 99.96505224 136.7298328 93 145 C89.04444833 151.46999153 87.68825852 158.07625214 86.1651001 165.45465088 C82.32713951 183.78781155 76.54629272 200.45370728 63 214 C62.63495273 216.1555172 62.3565688 218.32608883 62.125 220.5 C60.49269392 232.68622399 56.39511495 239.77772599 47.6875 248.25 C39.77039372 253.40532502 32.39398222 254.57503178 23.0859375 254.390625 C21.99028473 254.38496521 20.89463196 254.37930542 19.76577759 254.37347412 C16.30172104 254.35126804 12.83873846 254.30110039 9.375 254.25 C7.0117338 254.22991467 4.64845121 254.21166748 2.28515625 254.1953125 C-3.47692254 254.15145517 -9.23838451 254.08470281 -15 254 C-15.14244141 254.78012451 -15.28488281 255.56024902 -15.43164062 256.36401367 C-17.23903362 264.74649743 -24.53302203 270.92988927 -31 276 C-31.66 276.33 -32.32 276.66 -33 277 C-30.58480524 285.1848267 -27.59730498 295.27212724 -20 300 C-16.91957039 301.02680987 -14.06365439 301.31169098 -10.84326172 301.59472656 C0.74066725 302.64332253 10.21329133 304.88595802 19 313 C21.35365835 315.92424219 22.08956753 317.01475717 21.75 320.75 C21 323 21 323 20 324 C12.78543065 324.35481489 6.07969821 323.3416687 -1 322 C-0.95875 323.27875 -0.9175 324.5575 -0.875 325.875 C-0.8046875 328.0546875 -0.8046875 328.0546875 -1 330 C-3 332 -3 332 -4.9609375 332.1875 C-14.90240682 331.41534704 -22.94694244 326.57519369 -31 321 C-31.99 320.67 -32.98 320.34 -34 320 C-33.34 320.886875 -32.68 321.77375 -32 322.6875 C-30.01505276 325.97506886 -29.38076429 327.28458576 -30 331 C-32 333 -32 333 -34.7578125 333.046875 C-41.03727353 332.49323342 -46.94660623 331.78040993 -53 330 C-52.98839844 330.63808594 -52.97679687 331.27617187 -52.96484375 331.93359375 C-52.95582031 332.75988281 -52.94679688 333.58617187 -52.9375 334.4375 C-52.92589844 335.26121094 -52.91429687 336.08492188 -52.90234375 336.93359375 C-53 339 -53 339 -54 340 C-62.15038991 340.92268565 -69.68633757 338.12722217 -76.30078125 333.33203125 C-76.96464844 332.78933594 -77.62851563 332.24664062 -78.3125 331.6875 C-80.94355868 329.59559269 -81.8772972 329.02083632 -85.3125 328.4375 C-89.46819565 329.07141968 -93.37120173 330.15260628 -97.40234375 331.328125 C-100.35531577 332.09190122 -102.96350613 332.31963093 -106 332 C-107 331 -107 331 -107.08984375 329.25 C-106.65031877 322.75855421 -104.53536694 317.74608089 -100 313 C-98.34934245 312.29462642 -96.68343291 311.62311784 -95 311 C-95.93068439 306.98649559 -96.90668026 302.98693905 -97.92358398 298.99438477 C-98.26231435 297.63865873 -98.58912166 296.27988976 -98.90307617 294.91821289 C-100.77638791 286.83417508 -102.54190725 280.94965041 -109.86816406 276.32348633 C-110.57166992 275.88673584 -111.27517578 275.44998535 -112 275 C-117.50340539 269.9568503 -120.06006771 264.16633812 -122 257 C-122 256.01 -122 255.02 -122 254 C-122.73001221 254.02094727 -123.46002441 254.04189453 -124.2121582 254.06347656 C-127.57879383 254.14756927 -130.94520745 254.19895279 -134.3125 254.25 C-135.46041016 254.28351563 -136.60832031 254.31703125 -137.79101562 254.3515625 C-148.87131865 254.47711834 -157.85873557 252.1972288 -165.98828125 244.41796875 C-171.84587189 237.37748602 -175.10773147 229.23211549 -175.14044189 220.10017395 C-175.14900711 218.66009979 -175.14900711 218.66009979 -175.15774536 217.19093323 C-175.15886322 216.14928513 -175.15998108 215.10763702 -175.16113281 214.03442383 C-175.16609772 212.92809601 -175.17106262 211.82176819 -175.17617798 210.68191528 C-175.19077667 207.02361426 -175.19759824 203.36535661 -175.203125 199.70703125 C-175.20887885 197.15980529 -175.21463656 194.61257934 -175.22039795 192.06535339 C-175.22956009 187.40554532 -175.23586268 182.74575021 -175.2388947 178.08593541 C-175.243369 171.24888714 -175.26089225 164.41203942 -175.2898953 157.57505208 C-175.31420972 151.63503908 -175.32184356 145.69507543 -175.32357025 139.7550106 C-175.32658959 137.2373311 -175.33459374 134.7196523 -175.34775543 132.20200539 C-175.36489032 128.67203388 -175.36291711 125.14254553 -175.35644531 121.61254883 C-175.3656601 120.58102188 -175.37487488 119.54949493 -175.3843689 118.48670959 C-175.3185136 106.96739094 -172.38468784 98.61435287 -164.37109375 90.3125 C-157.40315431 83.84573486 -149.10638409 80.86348812 -139.65893555 80.88647461 C-138.6182341 80.88655014 -137.57753265 80.88662567 -136.5052948 80.88670349 C-135.3936647 80.89186478 -134.28203461 80.89702606 -133.13671875 80.90234375 C-131.98959915 80.9037587 -130.84247955 80.90517365 -129.66059875 80.90663147 C-126.00287246 80.91222139 -122.34520775 80.92477211 -118.6875 80.9375 C-116.20507901 80.9425163 -113.72265706 80.94707898 -111.24023438 80.95117188 C-105.1601353 80.96218753 -99.08007205 80.9789157 -93 81 C-92.55624023 79.83174683 -92.55624023 79.83174683 -92.10351562 78.63989258 C-90.91799363 75.80381972 -89.53504452 73.97692508 -87.5 71.6875 C-86.8915625 70.99011719 -86.283125 70.29273438 -85.65625 69.57421875 C-84 68 -84 68 -82 68 C-86.08142078 63.20433059 -90.28128515 58.62496606 -94.8125 54.25 C-96.69791336 52.31071769 -98.47126937 50.33157841 -100.2421875 48.2890625 C-104.74458121 43.10470622 -109.48132877 38.15209015 -114.21484375 33.1796875 C-117.96050832 29.22632833 -121.56998444 25.2307974 -125 21 C-124.34 19.35 -123.68 17.7 -123 16 C-119.14116029 16.51861682 -117.19051919 17.31273363 -114.4765625 20.09765625 C-113.85144775 20.73050537 -113.22633301 21.36335449 -112.58227539 22.01538086 C-111.93637451 22.69093018 -111.29047363 23.36647949 -110.625 24.0625 C-109.95525146 24.74771729 -109.28550293 25.43293457 -108.59545898 26.13891602 C-104.77965355 30.06663558 -101.0690351 34.06147507 -97.53515625 38.24609375 C-95.15384663 40.96672485 -92.55180966 43.4567125 -89.9765625 45.9921875 C-87.46884489 48.53955282 -85.14314537 51.21648288 -82.8359375 53.9453125 C-82.23007813 54.62335938 -81.62421875 55.30140625 -81 56 C-80.61457031 56.50813232 -80.22914063 57.01626465 -79.83203125 57.53979492 C-76.86091997 61.08491898 -74.5831911 62.42434778 -69.953125 62.97265625 C-68.05348053 63.05144182 -66.15120078 63.07958478 -64.25 63.0625 C-63.26298096 63.05581299 -62.27596191 63.04912598 -61.2590332 63.04223633 C-56.58596194 62.81387501 -53.67278143 62.4192127 -49.65234375 59.9140625 C-47.09693636 57.08732025 -45.05687082 54.20489174 -43 51 C-41.50066016 49.12841027 -39.97993686 47.27373435 -38.4375 45.4375 C-37.70402344 44.52871094 -36.97054687 43.61992187 -36.21484375 42.68359375 C-34.04367173 40.05291443 -31.79758643 37.52057576 -29.5 35 C-25.68636974 30.81158194 -22.09988185 26.48196518 -18.5390625 22.078125 C-14.91830174 17.68864888 -11.17805236 13.40601731 -7.42871094 9.1262207 C-6.89793945 8.51866943 -6.36716797 7.91111816 -5.8203125 7.28515625 C-5.32152588 6.71522949 -4.82273926 6.14530273 -4.30883789 5.55810547 C-2.87683431 3.90179516 -2.87683431 3.90179516 -1.31640625 1.57421875 C-0.88199219 1.05472656 -0.44757813 0.53523438 0 0 Z " fill="#7F736D" transform="translate(235,86)"/>
<path d="M0 0 C3.1875 -0.25 3.1875 -0.25 6 0 C6.82421875 2.09765625 6.82421875 2.09765625 7 5 C5.35189969 7.39417911 3.77843702 9.33399779 1.8125 11.4375 C0.69492724 12.68455068 -0.42224937 13.93195647 -1.5390625 15.1796875 C-2.1155957 15.81358398 -2.69212891 16.44748047 -3.28613281 17.10058594 C-5.93674497 20.03815895 -8.49765563 23.05012723 -11.0625 26.0625 C-12.06362797 27.230618 -13.06492939 28.39858736 -14.06640625 29.56640625 C-17.34126711 33.39409558 -20.59306404 37.24108368 -23.8425293 41.09033203 C-27.82179442 45.79995497 -31.83267613 50.48209048 -35.85351562 55.15625 C-38.93616846 58.74349112 -41.98014286 62.35969948 -45 66 C-43.32044107 69.69989794 -41.08369792 72.26692644 -38.33984375 75.21875 C-36.87470446 77.16657366 -36.51838114 78.64797858 -36 81 C-35.1806044 80.99555878 -34.3612088 80.99111755 -33.51698303 80.98654175 C-25.76438538 80.94633302 -18.01183887 80.91594883 -10.25916386 80.89637566 C-6.27421147 80.88597436 -2.28934584 80.87188259 1.69555664 80.84912109 C5.54701646 80.82726151 9.39839325 80.81540394 13.24991035 80.81024551 C14.71338773 80.80657316 16.17686099 80.79940246 17.64030266 80.78853989 C27.82758064 80.71598636 36.88418246 80.85774395 46 86 C46.061875 85.05125 46.12375 84.1025 46.1875 83.125 C47.69025782 73.16672483 54.11302394 65.89893262 61 59 C61.5775 58.41089844 62.155 57.82179687 62.75 57.21484375 C72.83177587 47.73894384 85.98044394 45.52827024 99.29296875 45.75390625 C112.82449731 46.65220583 124.69187626 52.62210536 133.87890625 62.5 C140.79299612 70.64920353 145.08858666 79.67911269 145.0703125 90.48828125 C145.28779832 103.12561712 147.45047805 110.87802846 156.34667969 119.77832031 C159.98123701 123.26364236 163.73928323 126.60894409 167.53852844 129.91311646 C172.66765974 134.43382955 176.81182643 139.61034839 181 145 C182.43182215 146.71309497 183.8686814 148.42200356 185.3125 150.125 C217.59335321 189.70413306 217.59335321 189.70413306 216.8125 201.9375 C216 204 216 204 215 205 C212.875 205.5 212.875 205.5 210 205 C205.34622643 201.36562445 201.65468885 196.49168571 197.81640625 192.03515625 C195.3902239 189.3167885 192.80794344 186.78008332 190.1875 184.25 C188.29033258 182.2986278 186.5253352 180.30222592 184.75390625 178.23828125 C181.04031506 173.96750319 177.06754965 170.05289458 172.9375 166.1875 C172.19653076 165.49317871 171.45556152 164.79885742 170.69213867 164.08349609 C164.0945408 157.97023586 157.23550009 152.33689508 150 147 C149.38962891 146.54866699 148.77925781 146.09733398 148.15039062 145.63232422 C146.29395722 144.26693188 144.43076564 142.91165022 142.5625 141.5625 C142.00731689 141.16111816 141.45213379 140.75973633 140.88012695 140.34619141 C139.27195843 139.20422517 137.63596691 138.10177364 136 137 C135.4544043 136.61239502 134.90880859 136.22479004 134.34667969 135.82543945 C129.55812591 132.69007686 125.73479603 132.5474655 120.125 133.0625 C118.92919312 133.15712524 118.92919312 133.15712524 117.70922852 133.25366211 C107.29035062 134.1932702 99.96505224 136.7298328 93 145 C89.04444833 151.46999153 87.68825852 158.07625214 86.1651001 165.45465088 C82.32713951 183.78781155 76.54629272 200.45370728 63 214 C62.63495273 216.1555172 62.3565688 218.32608883 62.125 220.5 C60.49269392 232.68622399 56.39511495 239.77772599 47.6875 248.25 C39.77039372 253.40532502 32.39398222 254.57503178 23.0859375 254.390625 C21.99028473 254.38496521 20.89463196 254.37930542 19.76577759 254.37347412 C16.30172104 254.35126804 12.83873846 254.30110039 9.375 254.25 C7.0117338 254.22991467 4.64845121 254.21166748 2.28515625 254.1953125 C-3.47692254 254.15145517 -9.23838451 254.08470281 -15 254 C-15.14244141 254.78012451 -15.28488281 255.56024902 -15.43164062 256.36401367 C-17.23903362 264.74649743 -24.53302203 270.92988927 -31 276 C-31.66 276.33 -32.32 276.66 -33 277 C-30.58480524 285.1848267 -27.59730498 295.27212724 -20 300 C-16.91957039 301.02680987 -14.06365439 301.31169098 -10.84326172 301.59472656 C0.74066725 302.64332253 10.21329133 304.88595802 19 313 C21.35365835 315.92424219 22.08956753 317.01475717 21.75 320.75 C21 323 21 323 20 324 C12.78543065 324.35481489 6.07969821 323.3416687 -1 322 C-0.95875 323.27875 -0.9175 324.5575 -0.875 325.875 C-0.8046875 328.0546875 -0.8046875 328.0546875 -1 330 C-3 332 -3 332 -4.9609375 332.1875 C-14.90240682 331.41534704 -22.94694244 326.57519369 -31 321 C-31.99 320.67 -32.98 320.34 -34 320 C-33.34 320.886875 -32.68 321.77375 -32 322.6875 C-30.01505276 325.97506886 -29.38076429 327.28458576 -30 331 C-32 333 -32 333 -34.7578125 333.046875 C-41.03727353 332.49323342 -46.94660623 331.78040993 -53 330 C-52.98839844 330.63808594 -52.97679687 331.27617187 -52.96484375 331.93359375 C-52.95582031 332.75988281 -52.94679688 333.58617187 -52.9375 334.4375 C-52.92589844 335.26121094 -52.91429687 336.08492188 -52.90234375 336.93359375 C-53 339 -53 339 -54 340 C-62.15038991 340.92268565 -69.68633757 338.12722217 -76.30078125 333.33203125 C-76.96464844 332.78933594 -77.62851563 332.24664062 -78.3125 331.6875 C-80.94355868 329.59559269 -81.8772972 329.02083632 -85.3125 328.4375 C-89.46819565 329.07141968 -93.37120173 330.15260628 -97.40234375 331.328125 C-100.35531577 332.09190122 -102.96350613 332.31963093 -106 332 C-107 331 -107 331 -107.08984375 329.25 C-106.65031877 322.75855421 -104.53536694 317.74608089 -100 313 C-98.34934245 312.29462642 -96.68343291 311.62311784 -95 311 C-95.93068439 306.98649559 -96.90668026 302.98693905 -97.92358398 298.99438477 C-98.26231435 297.63865873 -98.58912166 296.27988976 -98.90307617 294.91821289 C-100.77638791 286.83417508 -102.54190725 280.94965041 -109.86816406 276.32348633 C-110.57166992 275.88673584 -111.27517578 275.44998535 -112 275 C-117.50340539 269.9568503 -120.06006771 264.16633812 -122 257 C-122 256.01 -122 255.02 -122 254 C-122.73001221 254.02094727 -123.46002441 254.04189453 -124.2121582 254.06347656 C-127.57879383 254.14756927 -130.94520745 254.19895279 -134.3125 254.25 C-135.46041016 254.28351563 -136.60832031 254.31703125 -137.79101562 254.3515625 C-148.87131865 254.47711834 -157.85873557 252.1972288 -165.98828125 244.41796875 C-171.84587189 237.37748602 -175.10773147 229.23211549 -175.14044189 220.10017395 C-175.14900711 218.66009979 -175.14900711 218.66009979 -175.15774536 217.19093323 C-175.15886322 216.14928513 -175.15998108 215.10763702 -175.16113281 214.03442383 C-175.16609772 212.92809601 -175.17106262 211.82176819 -175.17617798 210.68191528 C-175.19077667 207.02361426 -175.19759824 203.36535661 -175.203125 199.70703125 C-175.20887885 197.15980529 -175.21463656 194.61257934 -175.22039795 192.06535339 C-175.22956009 187.40554532 -175.23586268 182.74575021 -175.2388947 178.08593541 C-175.243369 171.24888714 -175.26089225 164.41203942 -175.2898953 157.57505208 C-175.31420972 151.63503908 -175.32184356 145.69507543 -175.32357025 139.7550106 C-175.32658959 137.2373311 -175.33459374 134.7196523 -175.34775543 132.20200539 C-175.36489032 128.67203388 -175.36291711 125.14254553 -175.35644531 121.61254883 C-175.3656601 120.58102188 -175.37487488 119.54949493 -175.3843689 118.48670959 C-175.3185136 106.96739094 -172.38468784 98.61435287 -164.37109375 90.3125 C-157.40315431 83.84573486 -149.10638409 80.86348812 -139.65893555 80.88647461 C-138.6182341 80.88655014 -137.57753265 80.88662567 -136.5052948 80.88670349 C-135.3936647 80.89186478 -134.28203461 80.89702606 -133.13671875 80.90234375 C-131.98959915 80.9037587 -130.84247955 80.90517365 -129.66059875 80.90663147 C-126.00287246 80.91222139 -122.34520775 80.92477211 -118.6875 80.9375 C-116.20507901 80.9425163 -113.72265706 80.94707898 -111.24023438 80.95117188 C-105.1601353 80.96218753 -99.08007205 80.9789157 -93 81 C-92.55624023 79.83174683 -92.55624023 79.83174683 -92.10351562 78.63989258 C-90.91799363 75.80381972 -89.53504452 73.97692508 -87.5 71.6875 C-86.8915625 70.99011719 -86.283125 70.29273438 -85.65625 69.57421875 C-84 68 -84 68 -82 68 C-86.08142078 63.20433059 -90.28128515 58.62496606 -94.8125 54.25 C-96.69791336 52.31071769 -98.47126937 50.33157841 -100.2421875 48.2890625 C-104.74458121 43.10470622 -109.48132877 38.15209015 -114.21484375 33.1796875 C-117.96050832 29.22632833 -121.56998444 25.2307974 -125 21 C-124.34 19.35 -123.68 17.7 -123 16 C-119.14116029 16.51861682 -117.19051919 17.31273363 -114.4765625 20.09765625 C-113.85144775 20.73050537 -113.22633301 21.36335449 -112.58227539 22.01538086 C-111.93637451 22.69093018 -111.29047363 23.36647949 -110.625 24.0625 C-109.95525146 24.74771729 -109.28550293 25.43293457 -108.59545898 26.13891602 C-104.77965355 30.06663558 -101.0690351 34.06147507 -97.53515625 38.24609375 C-95.15384663 40.96672485 -92.55180966 43.4567125 -89.9765625 45.9921875 C-87.46884489 48.53955282 -85.14314537 51.21648288 -82.8359375 53.9453125 C-82.23007813 54.62335938 -81.62421875 55.30140625 -81 56 C-80.61457031 56.50813232 -80.22914063 57.01626465 -79.83203125 57.53979492 C-76.86091997 61.08491898 -74.5831911 62.42434778 -69.953125 62.97265625 C-68.05348053 63.05144182 -66.15120078 63.07958478 -64.25 63.0625 C-63.26298096 63.05581299 -62.27596191 63.04912598 -61.2590332 63.04223633 C-56.58596194 62.81387501 -53.67278143 62.4192127 -49.65234375 59.9140625 C-47.09693636 57.08732025 -45.05687082 54.20489174 -43 51 C-41.50066016 49.12841027 -39.97993686 47.27373435 -38.4375 45.4375 C-37.70402344 44.52871094 -36.97054687 43.61992187 -36.21484375 42.68359375 C-34.04367173 40.05291443 -31.79758643 37.52057576 -29.5 35 C-25.68636974 30.81158194 -22.09988185 26.48196518 -18.5390625 22.078125 C-14.91830174 17.68864888 -11.17805236 13.40601731 -7.42871094 9.1262207 C-6.89793945 8.51866943 -6.36716797 7.91111816 -5.8203125 7.28515625 C-5.32152588 6.71522949 -4.82273926 6.14530273 -4.30883789 5.55810547 C-2.87683431 3.90179516 -2.87683431 3.90179516 -1.31640625 1.57421875 C-0.88199219 1.05472656 -0.44757813 0.53523438 0 0 Z " fill="#F9F9F8" transform="translate(178,367)"/>
<path d="M0 0 C0.3125 2.5 0.3125 2.5 0 5 C-2.62956644 7.62956644 -3.96454082 7.25452919 -7.625 7.375 C-14.75222093 7.87006445 -19.10970359 9.83227769 -24.75 14.0625 C-29.88771665 20.77007451 -31.42352732 28.37569373 -31.62890625 36.6875 C-32 39 -32 39 -33.36328125 40.82421875 C-35 42 -35 42 -37.625 41.8125 C-40 41 -40 41 -41 39 C-41.72838781 27.7099889 -39.08639288 16.9739648 -32 8 C-24.68270506 0.83420185 -9.47659981 -6.31773321 0 0 Z " fill="#FDFDFB" transform="translate(139,208)"/>
<path d="M0 0 C2.7677477 1.78967381 4.91818025 3.89971451 7.25268555 6.22827148 C7.73618973 6.70986221 8.21969391 7.19145294 8.71784973 7.68763733 C9.74144408 8.70987286 10.76252574 9.73462978 11.78125 10.76171875 C13.30546329 12.29647194 14.83982148 13.82047052 16.37573242 15.34350586 C22.74194021 21.70094387 28.56045464 28.32458087 34.1472168 35.38842773 C35.03424827 36.46951125 35.92411388 37.54828846 36.8190918 38.62280273 C40.78889269 43.42835118 44.61068106 48.25474683 48.1472168 53.38842773 C47.6522168 54.37842773 47.6522168 54.37842773 47.1472168 55.38842773 C46.5181543 54.74776367 45.8890918 54.10709961 45.2409668 53.44702148 C40.04487275 48.19614934 34.77607437 43.16801908 29.1472168 38.38842773 C28.22682617 37.57889648 27.30643555 36.76936523 26.3581543 35.93530273 C14.65745723 25.7183157 2.12327841 16.27080797 -11.8527832 9.38842773 C-11.5227832 8.06842773 -11.1927832 6.74842773 -10.8527832 5.38842773 C-6.80977145 6.87361572 -3.24132064 8.81720772 0.4597168 11.01342773 C1.52834961 11.64506836 2.59698242 12.27670898 3.69799805 12.92749023 C4.91036133 13.6506543 4.91036133 13.6506543 6.1472168 14.38842773 C5.46014648 13.77354492 4.77307617 13.15866211 4.06518555 12.52514648 C3.16413086 11.7169043 2.26307617 10.90866211 1.3347168 10.07592773 C0.44139648 9.27541992 -0.45192383 8.47491211 -1.37231445 7.65014648 C-3.25205106 5.93618192 -5.07871067 4.2096517 -6.8527832 2.38842773 C-2.4335188 -0.80326322 -2.4335188 -0.80326322 0 0 Z " fill="#F2DFC5" transform="translate(376.852783203125,201.611572265625)"/>
<path d="M0 0 C2.31 0 4.62 0 7 0 C7.12528076 0.62455078 7.25056152 1.24910156 7.37963867 1.89257812 C7.96573337 4.76537244 8.57640707 7.63242364 9.1875 10.5 C9.38408203 11.48226563 9.58066406 12.46453125 9.78320312 13.4765625 C11.13233323 19.70331683 12.79301483 25.09091664 17 30 C19.05575279 31.47715878 19.05575279 31.47715878 21.375 31.875 C22.23738281 32.07996094 23.09976563 32.28492188 23.98828125 32.49609375 C28.77570495 33.29710239 33.59478394 33.82266959 38.4140625 34.39453125 C43.04684411 35.17675472 46.91547132 36.71974822 51 39 C46.19349989 40.7906569 41.85116251 38.8594836 37.09375 37.59375 C34.18746073 37.03597731 32.72363069 36.98531406 30 38 C30.60990891 41.55780196 31.5783681 44.6828589 33 48 C28.64007423 46.967386 25.57365986 45.09657159 22 42.5 C14.68267902 37.27334215 9.75999843 36.56891115 1 38 C-0.33774467 38.31516358 -1.67300624 38.64226205 -3 39 C-1.00546379 34.08714238 2.60479526 32.55205436 7 30 C5.67976697 23.06270762 4.11854568 16.21740311 2.375 9.375 C2.14554688 8.46621094 1.91609375 7.55742187 1.6796875 6.62109375 C1.1219792 4.41349839 0.56206087 2.2064904 0 0 Z " fill="#EED9C1" transform="translate(141,370)"/>
<path d="M0 0 C2.31 0 4.62 0 7 0 C7.43570313 0.99 7.87140625 1.98 8.3203125 3 C14.22107073 16.94438064 14.22107073 16.94438064 25.66577148 26.12768555 C29.8469474 27.69021473 34.14631545 28.09282727 38.5625 28.5625 C44.9320076 29.26418705 50.22689522 30.14116485 56 33 C56 33.33 56 33.66 56 34 C50.79166667 33.47916667 45.58333333 32.95833333 40.375 32.4375 C39.53710938 32.35371094 38.69921875 32.26992188 37.8359375 32.18359375 C36.92714844 32.09271484 36.92714844 32.09271484 36 32 C34.91215665 35.31395986 34.92737456 35.83580335 36.4375 39.25 C36.953125 40.1575 37.46875 41.065 38 42 C33.76378202 41.45339123 31.27785938 40.03913666 27.875 37.5 C23.85207705 34.51643404 21.05184302 32.86427186 15.98828125 32.90234375 C15.23095703 32.90556641 14.47363281 32.90878906 13.69335938 32.91210938 C12.90767578 32.92048828 12.12199219 32.92886719 11.3125 32.9375 C10.51521484 32.94201172 9.71792969 32.94652344 8.89648438 32.95117188 C6.93095743 32.9629415 4.96546915 32.98087652 3 33 C8.38392857 27.47321429 8.38392857 27.47321429 12 26 C11.61575456 19.89148271 8.66434935 15.74537228 5.4375 10.75 C4.41154742 9.14305569 3.3892165 7.53379149 2.37109375 5.921875 C1.91661865 5.21643555 1.46214355 4.51099609 0.99389648 3.78417969 C0 2 0 2 0 0 Z " fill="#EDD8C0" transform="translate(187,367)"/>
<path d="M0 0 C1.36801758 0.08797852 1.36801758 0.08797852 2.76367188 0.17773438 C3.69501953 0.20931641 4.62636719 0.24089844 5.5859375 0.2734375 C7.87760039 0.35570232 10.16274474 0.470518 12.45117188 0.61523438 C9.74233385 8.30833436 4.44307788 13.9300041 -2.79882812 17.61523438 C-7.04743061 19.56363806 -10.86129405 20.75695768 -15.54882812 20.80273438 C-16.53882813 20.82400391 -16.53882813 20.82400391 -17.54882812 20.84570312 C-19.89307216 20.57556563 -21.50698215 19.76833043 -23.54882812 18.61523438 C-22.81277344 17.90238281 -22.07671875 17.18953125 -21.31835938 16.45507812 C-20.33240949 15.48790823 -19.34674788 14.5204444 -18.36132812 13.55273438 C-17.87857422 13.08673828 -17.39582031 12.62074219 -16.8984375 12.140625 C-14.20645824 9.48477969 -12.21173692 7.05928199 -10.33007812 3.77148438 C-7.55532463 -0.24939273 -4.64761974 -0.11830305 0 0 Z " fill="#4A2E24" transform="translate(199.548828125,339.384765625)"/>
<path d="M0 0 C3.32299537 1.97830868 6.00179662 4.34588348 8.5 7.3125 C8.5 7.9725 8.5 8.6325 8.5 9.3125 C-4.37 9.3125 -17.24 9.3125 -30.5 9.3125 C-27.11061947 3.66353245 -27.11061947 3.66353245 -24 1.5625 C-23.4121875 1.15515625 -22.824375 0.7478125 -22.21875 0.328125 C-16.04346575 -3.3209066 -6.37801973 -3.02437647 0 0 Z " fill="#72645E" transform="translate(181.5,157.6875)"/>
<path d="M0 0 C9.57 0 19.14 0 29 0 C29 2.64 29 5.28 29 8 C19.43 8 9.86 8 0 8 C0 5.36 0 2.72 0 0 Z " fill="#222222" transform="translate(250,208)"/>
<path d="M0 0 C9.57 0 19.14 0 29 0 C29 2.64 29 5.28 29 8 C19.43 8 9.86 8 0 8 C0 5.36 0 2.72 0 0 Z " fill="#222222" transform="translate(250,194)"/>
<path d="M0 0 C2.375 1.625 2.375 1.625 4 4 C4.5625 7.4375 4.5625 7.4375 4 11 C1.55401113 14.38121991 0.10703441 15.76936783 -4 16.625 C-8.10703441 15.76936783 -9.55401113 14.38121991 -12 11 C-12.5625 7.4375 -12.5625 7.4375 -12 4 C-8.27771943 -0.71488872 -5.77958862 -1.50269304 0 0 Z " fill="#817470" transform="translate(269,232)"/>
<path d="M0 0 C2.31 0 4.62 0 7 0 C7.48210937 1.03640625 7.96421875 2.0728125 8.4609375 3.140625 C9.09892902 4.51043032 9.73695148 5.88022123 10.375 7.25 C10.69210938 7.93191406 11.00921875 8.61382812 11.3359375 9.31640625 C12.85019344 12.56574713 14.37026855 15.80638484 16 19 C14.68 19.99 13.36 20.98 12 22 C10.36915458 19.27428673 8.74638861 16.54384748 7.125 13.8125 C6.66480469 13.04357422 6.20460937 12.27464844 5.73046875 11.48242188 C3.5121088 7.73693007 1.44006471 4.12984076 0 0 Z " fill="#E5CAB2" transform="translate(187,367)"/>
<path d="M0 0 C5.00872342 1.80314043 9.07902022 4.58728755 13.4765625 7.5390625 C15.94674117 9.25051814 15.94674117 9.25051814 19 9 C19 9.66 19 10.32 19 11 C16.91796875 12.23828125 16.91796875 12.23828125 14 13 C11.50350195 11.83696079 9.54430425 10.73181755 7.3125 9.1875 C6.16285199 8.43085042 5.01311622 7.67433418 3.86328125 6.91796875 C2.91839844 6.28503906 1.97351563 5.65210938 1 5 C0.34 4.67 -0.32 4.34 -1 4 C-0.67 2.68 -0.34 1.36 0 0 Z " fill="#E0D1B8" transform="translate(366,207)"/>
<path d="M0 0 C3.0625 0.1875 3.0625 0.1875 5.0625 2.1875 C5.3125 4.6875 5.3125 4.6875 5.0625 7.1875 C3.0625 9.1875 3.0625 9.1875 0.5625 9.4375 C-1.9375 9.1875 -1.9375 9.1875 -3.9375 7.1875 C-4.125 4.125 -4.125 4.125 -3.9375 1.1875 C-2.9375 0.1875 -2.9375 0.1875 0 0 Z " fill="#222222" transform="translate(345.9375,171.8125)"/>
<path d="M0 0 C0.66 0 1.32 0 2 0 C3.9453125 2.1171875 3.9453125 2.1171875 6.125 4.875 C6.84945313 5.77992188 7.57390625 6.68484375 8.3203125 7.6171875 C10 10 10 10 10 12 C6.37267012 12.51818998 5.19995189 12.14663138 2.1875 9.9375 C-0.48534354 6.34825296 -0.42880585 4.37381963 0 0 Z " fill="#7D7673" transform="translate(257,285)"/>
<path d="M0 0 C3.62732988 -0.51818998 4.80004811 -0.14663138 7.8125 2.0625 C10.48534354 5.65174704 10.42880585 7.62618037 10 12 C9.34 12 8.68 12 8 12 C6.30859375 10.13671875 6.30859375 10.13671875 4.4375 7.6875 C3.50744141 6.48673828 3.50744141 6.48673828 2.55859375 5.26171875 C1 3 1 3 0 0 Z " fill="#807672" transform="translate(263,280)"/>
<path d="M0 0 C7.66142233 -0.49965798 14.97809967 1.05788869 21 6 C5.01117318 4.59357542 5.01117318 4.59357542 0 0 Z " fill="#CDBEAD" transform="translate(171,404)"/>
<path d="M0 0 C5.5215874 0.58344492 9.8904121 1.59559668 14.86328125 4.08203125 C14.86328125 4.41203125 14.86328125 4.74203125 14.86328125 5.08203125 C8.36477914 4.56649246 2.20101593 3.61535416 -4.13671875 2.08203125 C-2.13671875 0.08203125 -2.13671875 0.08203125 0 0 Z " fill="#D3C6B7" transform="translate(228.13671875,395.91796875)"/>
<path d="M0 0 C3.0831351 1.19899698 6.06279492 2.47700477 9 4 C8.67 4.99 8.34 5.98 8 7 C4.65626525 6.44271087 1.96687001 5.64826111 -1 4 C-0.67 2.68 -0.34 1.36 0 0 Z " fill="#E8D9C3" transform="translate(366,207)"/>
<path d="M0 0 C0.99 0.33 1.98 0.66 3 1 C3.33 1.99 3.66 2.98 4 4 C1.03 4.66 -1.94 5.32 -5 6 C-3 2 -3 2 0 0 Z " fill="#DECFBC" transform="translate(143,403)"/>
<path d="M0 0 C0.33 0 0.66 0 1 0 C1 3.63 1 7.26 1 11 C1.66 11 2.32 11 3 11 C2.34 12.65 1.68 14.3 1 16 C0.67 16 0.34 16 0 16 C0 10.72 0 5.44 0 0 Z " fill="#79594F" transform="translate(297,272)"/>
<path d="M0 0 C0 0.33 0 0.66 0 1 C-1.0725 1.268125 -2.145 1.53625 -3.25 1.8125 C-6.56508928 2.86227827 -8.43877646 3.74612328 -11 6 C-9.55369928 1.42004773 -9.55369928 1.42004773 -7.1875 -0.375 C-4.4719851 -1.1508614 -2.69201151 -0.74778098 0 0 Z " fill="#756B69" transform="translate(268,232)"/>
<path d="M0 0 C3.82097239 0.53069061 6.06171403 1.49701566 9 4 C6.03 3.67 3.06 3.34 0 3 C0 2.01 0 1.02 0 0 Z " fill="#D2C7B6" transform="translate(183,406)"/>
</svg>
